<svg width="52" height="52" viewBox="0 0 52 52" fill="none" xmlns="http://www.w3.org/2000/svg">
<g id="at-solid 1" clip-path="url(#clip0_9_135)">
<path id="Vector" d="M26 6.5C15.2344 6.5 6.5 15.2344 6.5 26C6.5 36.7656 15.2344 45.5 26 45.5C27.7977 45.5 29.25 46.9523 29.25 48.75C29.25 50.5477 27.7977 52 26 52C11.6391 52 0 40.3609 0 26C0 11.6391 11.6391 0 26 0C40.3609 0 52 11.6391 52 26V29.25C52 34.6328 47.6328 39 42.25 39C39.2742 39 36.6031 37.6594 34.8156 35.557C32.5 37.6898 29.4023 39 26 39C18.8195 39 13 33.1805 13 26C13 18.8195 18.8195 13 26 13C28.8336 13 31.4539 13.9039 33.5867 15.4477C34.1656 14.9398 34.9172 14.625 35.75 14.625C37.5477 14.625 39 16.0773 39 17.875V26V29.25C39 31.0477 40.4523 32.5 42.25 32.5C44.0477 32.5 45.5 31.0477 45.5 29.25V26C45.5 15.2344 36.7656 6.5 26 6.5ZM32.5 26C32.5 24.2761 31.8152 22.6228 30.5962 21.4038C29.3772 20.1848 27.7239 19.5 26 19.5C24.2761 19.5 22.6228 20.1848 21.4038 21.4038C20.1848 22.6228 19.5 24.2761 19.5 26C19.5 27.7239 20.1848 29.3772 21.4038 30.5962C22.6228 31.8152 24.2761 32.5 26 32.5C27.7239 32.5 29.3772 31.8152 30.5962 30.5962C31.8152 29.3772 32.5 27.7239 32.5 26Z" fill="white"/>
</g>
<defs>
<clipPath id="clip0_9_135">
<rect width="52" height="52" fill="white"/>
</clipPath>
</defs>
</svg>
