<svg width="52" height="54" viewBox="0 0 52 54" fill="none" xmlns="http://www.w3.org/2000/svg">
<g id="github 1">
<path id="Vector" d="M17.3927 41.6628C17.3927 41.8725 17.1516 42.0402 16.8476 42.0402C16.5016 42.0717 16.2605 41.9039 16.2605 41.6628C16.2605 41.4531 16.5016 41.2854 16.8056 41.2854C17.1202 41.2539 17.3927 41.4217 17.3927 41.6628ZM14.1323 41.191C14.0589 41.4007 14.2685 41.6418 14.5831 41.7048C14.8556 41.8096 15.1702 41.7048 15.2331 41.4951C15.296 41.2854 15.0968 41.0443 14.7823 40.9499C14.5097 40.8765 14.2056 40.9814 14.1323 41.191ZM18.7661 41.0128C18.4621 41.0862 18.2524 41.2854 18.2839 41.5265C18.3153 41.7362 18.5879 41.8725 18.9024 41.7991C19.2065 41.7257 19.4161 41.5265 19.3847 41.3168C19.3532 41.1177 19.0702 40.9814 18.7661 41.0128ZM25.6645 0.838623C11.1234 0.838623 0 11.8781 0 26.4193C0 38.0459 7.31774 47.9951 17.7702 51.4967C19.1121 51.7378 19.5839 50.9096 19.5839 50.2281C19.5839 49.5781 19.5524 45.9927 19.5524 43.791C19.5524 43.791 12.2137 45.3636 10.6726 40.6668C10.6726 40.6668 9.47742 37.616 7.75806 36.8298C7.75806 36.8298 5.35726 35.1838 7.92581 35.2152C7.92581 35.2152 10.5363 35.4249 11.9726 37.9201C14.2685 41.9669 18.1161 40.8031 19.6153 40.1112C19.8565 38.4338 20.5379 37.2701 21.2927 36.5781C15.4323 35.9281 9.51935 35.0789 9.51935 24.9935C9.51935 22.1104 10.3161 20.6636 11.9935 18.8185C11.721 18.137 10.8298 15.3273 12.2661 11.6999C14.4573 11.0185 19.5 14.5306 19.5 14.5306C21.5968 13.9435 23.8508 13.6394 26.0839 13.6394C28.3169 13.6394 30.571 13.9435 32.6677 14.5306C32.6677 14.5306 37.7105 11.008 39.9016 11.6999C41.3379 15.3378 40.4468 18.137 40.1742 18.8185C41.8516 20.6741 42.879 22.1209 42.879 24.9935C42.879 35.1104 36.704 35.9177 30.8435 36.5781C31.8081 37.4064 32.6258 38.9789 32.6258 41.4427C32.6258 44.9757 32.5944 49.3475 32.5944 50.2072C32.5944 50.8886 33.0766 51.7168 34.4081 51.4757C44.8919 47.9951 52 38.0459 52 26.4193C52 11.8781 40.2056 0.838623 25.6645 0.838623ZM10.1903 36.9975C10.054 37.1023 10.0855 37.3435 10.2637 37.5427C10.4315 37.7104 10.6726 37.7838 10.8089 37.6475C10.9452 37.5427 10.9137 37.3015 10.7355 37.1023C10.5677 36.9346 10.3266 36.8612 10.1903 36.9975ZM9.05806 36.1483C8.98468 36.2846 9.08952 36.4523 9.29919 36.5572C9.46694 36.662 9.67661 36.6306 9.75 36.4838C9.82339 36.3475 9.71855 36.1798 9.50887 36.0749C9.29919 36.012 9.13145 36.0435 9.05806 36.1483ZM12.4548 39.8806C12.2871 40.0168 12.35 40.3314 12.5911 40.5306C12.8323 40.7717 13.1363 40.8031 13.2726 40.6354C13.4089 40.4991 13.346 40.1846 13.1363 39.9854C12.9056 39.7443 12.5911 39.7128 12.4548 39.8806ZM11.2597 38.3394C11.0919 38.4443 11.0919 38.7168 11.2597 38.958C11.4274 39.1991 11.7105 39.3039 11.8468 39.1991C12.0145 39.0628 12.0145 38.7902 11.8468 38.5491C11.7 38.308 11.4274 38.2031 11.2597 38.3394Z" fill="white"/>
</g>
</svg>
