<svg width="56" height="56" viewBox="0 0 56 56" fill="none" xmlns="http://www.w3.org/2000/svg">
<g id="facebook 1" clip-path="url(#clip0_9_72)">
<path id="Vector" d="M55.2951 27.7926C55.2951 13.2009 43.4727 1.37842 28.881 1.37842C14.2893 1.37842 2.4668 13.2009 2.4668 27.7926C2.4668 40.9762 12.1261 51.904 24.7538 53.8872V35.4282H18.0437V27.7926H24.7538V21.9729C24.7538 15.3534 28.6946 11.697 34.7304 11.697C37.6211 11.697 40.6438 12.2125 40.6438 12.2125V18.7095H37.3122C34.0317 18.7095 33.0082 20.746 33.0082 22.8346V27.7926H40.3339L39.1623 35.4282H33.0082V53.8872C45.6359 51.904 55.2951 40.9762 55.2951 27.7926Z" fill="white"/>
</g>
<defs>
<clipPath id="clip0_9_72">
<rect width="54.5325" height="54.5325" fill="white" transform="translate(0.712646 0.501465)"/>
</clipPath>
</defs>
</svg>
