<svg width="52" height="52" viewBox="0 0 52 52" fill="none" xmlns="http://www.w3.org/2000/svg">
<g id="twitter 1">
<path id="Vector" d="M46.6548 15.4086C46.6878 15.8705 46.6878 16.3325 46.6878 16.7944C46.6878 30.8832 35.9645 47.1167 16.3655 47.1167C10.3274 47.1167 4.71829 45.3679 0 42.3325C0.857898 42.4315 1.68269 42.4645 2.57359 42.4645C7.55574 42.4645 12.1421 40.7818 15.8045 37.9112C11.1193 37.8122 7.19286 34.7437 5.84005 30.5203C6.5 30.6192 7.15985 30.6853 7.85281 30.6853C8.80963 30.6853 9.76655 30.5532 10.6574 30.3224C5.77413 29.3324 2.11159 25.0432 2.11159 19.863V19.731C3.53031 20.5229 5.1802 21.0178 6.9288 21.0837C4.05823 19.17 2.1776 15.9035 2.1776 12.2081C2.1776 10.2284 2.70542 8.41371 3.62934 6.82995C8.87555 13.2969 16.7614 17.5202 25.6039 17.9822C25.439 17.1903 25.3399 16.3656 25.3399 15.5407C25.3399 9.6675 30.0912 4.8833 35.9973 4.8833C39.0658 4.8833 41.8374 6.1701 43.7841 8.24878C46.1927 7.78687 48.5023 6.89596 50.5481 5.67518C49.7561 8.14986 48.0734 10.2285 45.8628 11.5482C48.0075 11.3174 50.0862 10.7233 51.9998 9.89856C50.5483 12.0101 48.7334 13.8908 46.6548 15.4086Z" fill="white"/>
</g>
</svg>
