<svg width="29" height="29" viewBox="0 0 29 29" fill="none" xmlns="http://www.w3.org/2000/svg">
<path id="Vector" d="M14.5 0C18.3456 0 22.0338 1.52767 24.753 4.24695C27.4723 6.96623 29 10.6544 29 14.5C29 18.3456 27.4723 22.0338 24.753 24.753C22.0338 27.4723 18.3456 29 14.5 29C10.6544 29 6.96623 27.4723 4.24695 24.753C1.52767 22.0338 0 18.3456 0 14.5C0 10.6544 1.52767 6.96623 4.24695 4.24695C6.96623 1.52767 10.6544 0 14.5 0ZM11.2941 11.2941C13.0613 9.52695 15.933 9.52695 17.7002 11.2941C18.2326 11.8266 19.0936 11.8266 19.6203 11.2941C20.1471 10.7617 20.1527 9.90078 19.6203 9.37402C16.7883 6.54199 12.2004 6.54199 9.36836 9.37402C6.53633 12.2061 6.53633 16.7939 9.36836 19.626C12.2004 22.458 16.7883 22.458 19.6203 19.626C20.1527 19.0936 20.1527 18.2326 19.6203 17.7059C19.0879 17.1791 18.227 17.1734 17.7002 17.7059C15.933 19.473 13.0613 19.473 11.2941 17.7059C9.52695 15.9387 9.52695 13.067 11.2941 11.2998V11.2941Z" fill="white"/>
</svg>
